HIERARCHY
ROOT Hips
{
	OFFSET 0.000000 0.000000 0.000000
	CHANNELS 6 Xposition Yposition Zposition Xrotation Yrotation Zrotation
	JOINT LeftUpLeg_virtual
	{
		OFFSET 0.000000 0.000000 0.000000
		CHANNELS 3 Xrotation Yrotation Zrotation
		JOINT LeftUpLeg
		{
			OFFSET 10.205400 -3.823500 0.155100
			CHANNELS 3 Xrotation Yrotation Zrotation
			JOINT LeftLeg
			{
				OFFSET 0.708757 -12.982077 0.567790
				CHANNELS 3 Xrotation Yrotation Zrotation
				JOINT LeftFoot
				{
					OFFSET -0.708756 -10.717838 -2.184338
					CHANNELS 3 Xrotation Yrotation Zrotation
					JOINT LeftToeBase
					{
						OFFSET 0.108149 -7.191104 7.560241
						CHANNELS 3 Xrotation Yrotation Zrotation
						JOINT LeftToe_End
						{
							OFFSET 0.070230 0.081724 4.490308
							CHANNELS 3 Xrotation Yrotation Zrotation
							End Site
							{
								OFFSET 0 0 0
							}
						}
					}
				}
			}
		}
	}
	JOINT RightUpLeg_virtual
	{
		OFFSET 0.000000 0.000000 0.000000
		CHANNELS 3 Xrotation Yrotation Zrotation
		JOINT RightUpLeg
		{
			OFFSET -10.205400 -3.823500 0.005500
			CHANNELS 3 Xrotation Yrotation Zrotation
			JOINT RightLeg
			{
				OFFSET -0.708756 -12.982134 0.610632
				CHANNELS 3 Xrotation Yrotation Zrotation
				JOINT RightFoot
				{
					OFFSET 0.708754 -10.717769 -1.945823
					CHANNELS 3 Xrotation Yrotation Zrotation
					JOINT RightToeBase
					{
						OFFSET -0.108140 -7.191069 7.372968
						CHANNELS 3 Xrotation Yrotation Zrotation
						JOINT RightToe_End
						{
							OFFSET -0.070227 0.081735 4.479403
							CHANNELS 3 Xrotation Yrotation Zrotation
							End Site
							{
								OFFSET 0 0 0
							}
						}
					}
				}
			}
		}
	}
	JOINT Spine_virtual
	{
		OFFSET 0.000000 0.000000 0.000000
		CHANNELS 3 Xrotation Yrotation Zrotation
		JOINT Spine
		{
			OFFSET 0.000000 6.876099 0.125700
			CHANNELS 3 Xrotation Yrotation Zrotation
			JOINT Spine1
			{
				OFFSET 0.000000 5.730043 0.104720
				CHANNELS 3 Xrotation Yrotation Zrotation
				JOINT Spine1_split
				{
					OFFSET 0.000000 5.730043 0.104720
					CHANNELS 3 Xrotation Yrotation Zrotation
					JOINT Spine2
					{
						OFFSET 0.000000 5.730043 0.104720
						CHANNELS 3 Xrotation Yrotation Zrotation
						JOINT Neck_virtual
						{
							OFFSET 0.000000 0.000000 0.000000
							CHANNELS 3 Xrotation Yrotation Zrotation
							JOINT Neck
							{
								OFFSET 0.000000 10.314075 0.188496
								CHANNELS 3 Xrotation Yrotation Zrotation
								JOINT Head
								{
									OFFSET 0.000000 7.643700 -2.377400
									CHANNELS 3 Xrotation Yrotation Zrotation
									JOINT HeadTop_End
									{
										OFFSET 0.000000 43.788605 -13.619600
										CHANNELS 3 Xrotation Yrotation Zrotation
										End Site
										{
											OFFSET 0 0 0
										}
									}
								}
							}
						}
						JOINT LeftShoulder_virtual
						{
							OFFSET 0.000000 0.000000 0.000000
							CHANNELS 3 Xrotation Yrotation Zrotation
							JOINT LeftShoulder
							{
								OFFSET 2.196100 4.412489 0.087492
								CHANNELS 3 Xrotation Yrotation Zrotation
								JOINT LeftShoulder_split
								{
									OFFSET 2.196100 4.412489 0.087492
									CHANNELS 3 Xrotation Yrotation Zrotation
									JOINT LeftArm
									{
										OFFSET 8.771219 -2.981674 -0.026999
										CHANNELS 3 Xrotation Yrotation Zrotation
										JOINT LeftForeArm
										{
											OFFSET 8.512804 0.000000 -0.000000
											CHANNELS 3 Xrotation Yrotation Zrotation
											JOINT LeftHand
											{
												OFFSET 18.484802 0.000000 -0.000000
												CHANNELS 3 Xrotation Yrotation Zrotation
												End Site
												{
													OFFSET 0 0 0
												}
											}
										}
									}
								}
							}
						}
						JOINT RightShoulder_virtual
						{
							OFFSET 0.000000 0.000000 0.000000
							CHANNELS 3 Xrotation Yrotation Zrotation
							JOINT RightShoulder
							{
								OFFSET -2.196100 4.412496 0.070690
								CHANNELS 3 Xrotation Yrotation Zrotation
								JOINT RightShoulder_split
								{
									OFFSET -2.196100 4.412496 0.070690
									CHANNELS 3 Xrotation Yrotation Zrotation
									JOINT RightArm
									{
										OFFSET -8.771282 -2.981682 -0.094208
										CHANNELS 3 Xrotation Yrotation Zrotation
										JOINT RightForeArm
										{
											OFFSET -8.494598 0.000000 0.000000
											CHANNELS 3 Xrotation Yrotation Zrotation
											JOINT RightHand
											{
												OFFSET -18.483803 0.000000 0.000001
												CHANNELS 3 Xrotation Yrotation Zrotation
												End Site
												{
													OFFSET 0 0 0
												}
											}
										}
									}
								}
							}
						}
					}
				}
			}
		}
	}
}
MOTION
Frames: 8
Frame Time: 0.03333333
0.424214 26.040104 1.259829 0.000000 0.000000 0.000000 -10.549245 -75.884570 -7.976315 -44.422956 14.925367 58.670580 41.950523 -1.512520 -5.242559 6.193919 -3.282972 -35.303544 -3.305065 0.210309 0.710393 0.000000 0.000000 0.000000 -12.787957 -73.970033 -9.119194 -28.193612 -1.031196 -27.217028 59.294969 13.169722 -10.307518 -27.397263 -7.288669 25.128672 3.413986 0.381510 -0.712512 0.000000 0.000000 0.000000 -12.320751 -75.674357 -9.087265 4.415939 -2.175102 -2.958876 4.034636 -0.139744 -3.378320 0.586174 0.567068 0.273092 0.000000 0.000000 0.000000 5.801930 0.182213 -3.059354 -6.031362 21.382320 5.890493 1.696328 19.431446 -8.710221 0.000000 0.000000 0.000000 6.110399 -0.063659 -3.407755 0.022003 -5.298983 -18.148827 -1.892346 -1.925040 -1.228355 -44.841534 -23.016780 -5.695556 -6.501362 -32.835609 -4.371448 0.000000 0.000000 0.000000 5.139176 -0.007985 -2.983993 1.944825 16.528880 5.907755 8.219394 4.032174 2.355195 19.507770 74.788044 -8.031409 77.694604 86.702476 -88.682691 0.000000 0.000000 0.000000 
0.376841 26.144861 1.104717 0.000000 0.000000 0.000000 -11.289567 -75.840570 -9.000886 -43.403284 14.507120 58.754605 41.942057 -1.509176 -5.171819 6.088297 -2.706971 -34.349100 -2.763062 0.182842 0.682358 0.000000 0.000000 0.000000 -13.837500 -74.181660 -10.220250 -28.306679 -0.895684 -26.998539 57.962611 13.227603 -9.830325 -26.965537 -7.311970 25.248756 3.620825 0.565324 -0.873194 0.000000 0.000000 0.000000 -12.812271 -76.111462 -9.858057 3.910324 -2.091947 -2.782863 3.811483 -0.139992 -3.335379 -0.014074 0.549638 0.294634 0.000000 0.000000 0.000000 5.645121 0.044551 -2.991054 -5.689683 21.540077 5.910875 2.217214 19.952391 -9.145647 0.000000 0.000000 0.000000 5.824185 -0.088825 -3.295919 -0.059537 -5.264818 -18.347225 -1.915728 -0.752821 -1.906163 -44.865522 -23.082493 -6.274956 -6.209812 -34.445426 -4.097492 0.000000 0.000000 0.000000 4.996352 -0.046742 -2.991834 1.925635 16.538888 5.722752 8.759050 2.043697 2.177426 18.175770 74.415164 -5.963857 64.550158 86.869187 -75.477285 0.000000 0.000000 0.000000 
0.386738 26.426031 0.916117 0.000000 0.000000 0.000000 -13.961179 -76.489294 -11.975221 -41.309401 14.005589 58.601507 41.031163 -1.262246 -5.048740 6.625896 -2.058322 -33.067797 -2.384606 0.104375 0.443551 0.000000 0.000000 0.000000 -15.815207 -75.001802 -12.454306 -28.765550 -1.001488 -26.964274 55.881760 13.605534 -9.142079 -24.955341 -6.557480 25.742191 3.948961 0.709006 -0.891189 0.000000 0.000000 0.000000 -15.310161 -76.865972 -12.720838 3.408658 -1.748516 -2.312001 3.902896 -0.173928 -3.140091 -0.162211 -0.017804 0.082601 0.000000 0.000000 0.000000 5.790946 -0.100829 -2.809942 -5.827670 21.827739 6.138547 2.888290 21.447188 -9.681159 0.000000 0.000000 0.000000 5.754148 -0.167628 -3.036179 -0.337464 -5.507304 -18.754846 -2.642232 0.068459 -2.129985 -42.676989 -21.833753 -7.636149 -6.175317 -36.182510 -4.355429 0.000000 0.000000 0.000000 5.042537 -0.076907 -2.822648 1.914176 15.902122 5.835443 7.930530 1.225635 2.181471 15.701338 71.893478 -1.469641 39.888704 86.089036 -50.413356 0.000000 0.000000 0.000000 
0.421769 26.853184 0.743559 0.000000 0.000000 0.000000 -18.374298 -77.629949 -16.684810 -38.357929 13.619943 58.207070 39.267096 -0.856479 -4.965632 7.993872 -1.748651 -31.818682 -3.304070 -0.081464 0.548951 0.000000 0.000000 0.000000 -18.328657 -75.880594 -15.403473 -28.989191 -1.279346 -26.895907 53.509782 13.881375 -8.330055 -22.231187 -5.409041 26.154212 4.324634 0.788309 -0.608165 0.000000 0.000000 0.000000 -18.808876 -77.338881 -16.621072 3.085373 -1.229286 -1.640510 4.258972 -0.240840 -2.808042 0.350206 -0.802403 0.332789 0.000000 0.000000 0.000000 6.023246 -0.232279 -2.568196 -6.299744 22.014174 6.532978 3.709185 23.645843 -10.264231 0.000000 0.000000 0.000000 5.930051 -0.287797 -2.713811 -0.739224 -6.260122 -19.467342 -3.360058 0.373956 -2.092029 -38.034042 -20.001999 -9.783090 -6.273906 -38.853015 -4.989177 0.000000 0.000000 0.000000 5.290338 -0.065155 -2.528679 1.918511 14.931717 6.335284 6.196203 1.722325 2.126756 13.324850 67.530319 4.248330 22.586570 84.169377 -32.346157 0.000000 0.000000 0.000000 
0.454262 27.366642 0.666023 0.000000 0.000000 0.000000 -23.252069 -78.663842 -21.790889 -34.707801 13.565465 57.554452 36.913894 -0.298388 -4.970953 9.602036 -1.715535 -30.599620 -5.393499 -0.386932 1.179053 0.000000 0.000000 0.000000 -19.778797 -76.085302 -17.363842 -28.427633 -1.651523 -26.669659 51.051084 13.564458 -7.515760 -19.680106 -4.546429 25.982849 4.521122 0.786028 -0.007772 0.000000 0.000000 0.000000 -22.495122 -77.342344 -20.594588 3.077018 -0.706308 -0.917505 4.722114 -0.351870 -2.371034 0.736559 -1.313002 0.908780 0.000000 0.000000 0.000000 6.143654 -0.369798 -2.292853 -6.815219 22.157549 7.029915 4.676496 25.916166 -10.755668 0.000000 0.000000 0.000000 6.273418 -0.471517 -2.395886 -1.206494 -7.583041 -20.440808 -3.044671 0.232941 -1.944094 -30.727529 -18.462780 -12.213411 -6.256078 -43.213173 -5.647380 0.000000 0.000000 0.000000 5.642489 -0.032189 -2.151758 1.864352 13.704127 7.352222 4.079205 3.019793 1.968953 11.829114 62.085176 9.866677 12.698048 81.020373 -21.352886 0.000000 0.000000 0.000000 
0.496666 27.852804 0.612040 0.000000 0.000000 0.000000 -26.102982 -79.064835 -24.787457 -30.771314 13.781395 56.572623 34.116143 0.646587 -5.141479 10.590546 -1.676900 -29.382268 -6.855784 -0.720424 1.842034 0.000000 0.000000 0.000000 -18.883007 -75.362586 -16.955340 -26.976124 -1.841353 -26.349101 48.714429 12.619609 -6.895076 -17.803931 -4.390142 25.405401 4.457780 0.677694 0.773260 0.000000 0.000000 0.000000 -24.984747 -76.874496 -23.112141 3.393565 -0.316748 -0.308032 5.143814 -0.537447 -1.853184 0.666099 -1.426408 1.179073 0.000000 0.000000 0.000000 6.025495 -0.539443 -1.972912 -6.969934 22.280588 7.524814 5.613123 27.909331 -11.071054 0.000000 0.000000 0.000000 6.686479 -0.727676 -2.095445 -1.628478 -9.319549 -21.358579 -2.707952 -0.216499 -1.855183 -21.767961 -18.880562 -14.111247 -5.905119 -49.629264 -5.975725 0.000000 0.000000 0.000000 5.995774 -0.013810 -1.697389 1.712548 12.405268 9.001892 1.958443 3.853095 1.562028 11.279897 56.619826 14.579109 7.222880 76.280297 -14.473299 0.000000 0.000000 0.000000 
0.549963 28.259806 0.535965 0.000000 0.000000 0.000000 -25.235942 -78.754438 -23.980605 -27.009155 14.040695 55.296197 30.823606 1.733611 -5.399706 10.600232 -1.719656 -28.886960 -6.946019 -0.986032 2.416509 0.000000 0.000000 0.000000 -15.928633 -73.861884 -14.310010 -24.984400 -1.707765 -26.222040 46.421244 11.526964 -6.544921 -16.502092 -4.913327 25.161029 4.310804 0.502977 1.473429 0.000000 0.000000 0.000000 -25.685452 -76.108873 -23.591096 4.020066 -0.198445 0.059796 5.388566 -0.888207 -1.287405 0.533981 -1.384207 1.602916 0.000000 0.000000 0.000000 5.695947 -0.837664 -1.604130 -6.547439 22.624085 7.885826 6.321371 29.717347 -11.237608 0.000000 0.000000 0.000000 7.027700 -1.111157 -1.772842 -1.951524 -11.298521 -21.753316 -2.661261 -0.502157 -2.628349 -12.736626 -22.330846 -14.310889 -5.181373 -57.960043 -5.621580 0.000000 0.000000 0.000000 6.216361 -0.171767 -1.130616 1.421607 11.203908 11.257619 -0.165822 3.664864 1.010905 11.045501 52.062523 18.431236 4.826203 70.225758 -10.330713 0.000000 0.000000 0.000000 
0.630409 28.562513 0.505518 0.000000 0.000000 0.000000 -20.622790 -77.862852 -19.408165 -23.834007 13.985136 53.793405 27.185707 2.614663 -5.640917 10.082241 -2.050886 -29.746792 -5.947415 -1.152146 2.982928 0.000000 0.000000 0.000000 -12.163334 -72.053093 -10.624031 -23.031101 -1.427347 -26.551467 44.139865 10.562158 -6.375042 -15.228955 -5.982982 25.826665 4.205800 0.317622 1.787756 0.000000 0.000000 0.000000 -24.490852 -75.308156 -21.996901 4.729608 -0.463409 0.132248 5.438200 -1.519202 -0.704528 0.374176 -1.586810 1.819028 0.000000 0.000000 0.000000 5.286331 -1.344110 -1.139071 -5.632029 23.470005 7.978890 6.730244 31.451980 -11.375349 0.000000 0.000000 0.000000 7.139913 -1.697094 -1.349566 -2.034269 -13.166992 -21.053886 -2.441368 -0.565062 -3.499808 -5.692510 -29.302601 -11.918019 -3.604387 -67.031968 -3.960964 0.000000 0.000000 0.000000 6.276006 -0.659275 -0.459247 1.046449 10.173881 13.959622 -2.067426 2.693323 0.373828 10.510181 48.801510 21.570969 4.546623 64.001195 -7.960431 0.000000 0.000000 0.000000 
